<?xml version="1.0" encoding="UTF-8"?><svg id="_1500_x_1500" xmlns="http://www.w3.org/2000/svg" viewBox="0 0 258.47 989.51"><defs><style>.cls-1{fill:#e8e8e8;stroke-width:0px;}</style></defs><g id="LogoPen"><path class="cls-1" d="M258.47,475.09s-.02-27.3-21.2-33.55v-.52s17.34-4.15,18.22-30.54v-15.5s2.02-33.13-29.53-37.2c0,0-4.07-1.48-55.34-.98v180.78h10.91v.05h36.07s41.66,2.77,40.85-42.88v-19.67ZM213.95,382.66c13.67.02,13.17,16.27,13.17,16.27,0,0,.04,11.18,0,14.99-.04,3.81-1.58,7.95-1.58,7.95-3.22,8.83-14.25,8.54-14.25,8.54h-12.2l-.05-47.74h14.91ZM229.9,492.37c-.04,4.43-.62,8.97-.62,8.97-2.01,11.23-13.81,10.44-13.81,10.44h-16.37l-.05-55.77h16.39c15.02.02,14.47,18.92,14.47,18.92,0,0,.04,13,0,17.43Z"/><polygon class="cls-1" points="90.15 356.09 90.15 19.86 79.24 19.86 79.24 356.09 64.83 356.09 64.83 464.32 35.65 356.09 0 356.09 0 536.91 25.57 536.91 25.57 405.95 60.96 536.91 90.15 536.91 90.15 356.09"/><path class="cls-1" d="M94.25,9.54l34.67-.2V0h-38.08c-11.35,1.65-11.6,19.86-11.6,19.86h10.91c.25-8.7,4.1-10.32,4.1-10.32Z"/><path class="cls-1" d="M163.6,9.54s3.85,1.61,4.1,10.32h10.91s-.25-18.21-11.6-19.86h-38.08v9.34l34.68.2Z"/><polygon class="cls-1" points="170.62 537.59 170.62 537.59 170.62 806.19 181.53 806.2 181.53 537.64 181.53 537.59 170.62 537.59"/><path class="cls-1" d="M130.8,970.41c-.84,1.62-1.7,0-1.7,0l-37.81-164.21h-10.65l1.64,6.8s40.57,167.88,44.85,174.02c3.96,5.69,6.86-.16,6.86-.16l45.87-174.01,1.68-6.65h-10.91s-38.79,162.23-39.82,164.21Z"/></g></svg>